<svg id="line_icons" height="512" viewBox="0 0 74 74" width="512" xmlns="http://www.w3.org/2000/svg" data-name="line icons"><path d="m11.407 31.477a.961.961 0 0 1 -.242-.03 1 1 0 0 1 -.729-1.212l5.064-20.327a5.791 5.791 0 0 1 5.631-4.408h34.214a5.79 5.79 0 0 1 5.634 4.41l5.062 20.325a1 1 0 0 1 -1.941.484l-5.061-20.327a3.8 3.8 0 0 0 -3.694-2.892h-34.214a3.8 3.8 0 0 0 -3.693 2.891l-5.062 20.328a1 1 0 0 1 -.969.758z"/><path d="m70.69 31.064h-5.732a1 1 0 0 1 -.97-.76l-1.446-5.841a1 1 0 0 1 .971-1.24h7.177a2.543 2.543 0 0 1 2.54 2.54v2.761a2.543 2.543 0 0 1 -2.54 2.54zm-4.949-2h4.949a.54.54 0 0 0 .54-.54v-2.761a.54.54 0 0 0 -.54-.54h-5.9z"/><path d="m11.5 31.064h-5.73a2.543 2.543 0 0 1 -2.54-2.54v-2.761a2.543 2.543 0 0 1 2.54-2.54h7.177a1 1 0 0 1 .971 1.24l-1.446 5.837a1 1 0 0 1 -.972.764zm-5.73-5.841a.54.54 0 0 0 -.54.54v2.761a.54.54 0 0 0 .54.54h4.949l.95-3.841z"/><path d="m67.118 54.761h-57.76a4.214 4.214 0 0 1 -4.209-4.209v-12.641a8.892 8.892 0 0 1 8.883-8.882h48.412a8.892 8.892 0 0 1 8.883 8.882v12.641a4.214 4.214 0 0 1 -4.209 4.209zm-53.086-23.732a6.89 6.89 0 0 0 -6.883 6.882v12.641a2.211 2.211 0 0 0 2.209 2.209h57.76a2.211 2.211 0 0 0 2.209-2.209v-12.641a6.89 6.89 0 0 0 -6.883-6.882z"/><path d="m21.124 63.43h-5.883a3.3 3.3 0 0 1 -3.294-3.294v-6.375a1 1 0 0 1 1-1h10.471a1 1 0 0 1 1 1v6.375a3.3 3.3 0 0 1 -3.294 3.294zm-7.177-8.669v5.375a1.3 1.3 0 0 0 1.294 1.294h5.883a1.3 1.3 0 0 0 1.294-1.294v-5.375z"/><path d="m60.559 63.43h-5.883a3.3 3.3 0 0 1 -3.294-3.294v-6.375a1 1 0 0 1 1-1h10.472a1 1 0 0 1 1 1v6.375a3.3 3.3 0 0 1 -3.295 3.294zm-7.177-8.669v5.375a1.3 1.3 0 0 0 1.294 1.294h5.883a1.3 1.3 0 0 0 1.3-1.294v-5.375z"/><path d="m18.183 47.455a5.56 5.56 0 1 1 5.56-5.56 5.567 5.567 0 0 1 -5.56 5.56zm0-9.12a3.56 3.56 0 1 0 3.56 3.56 3.564 3.564 0 0 0 -3.56-3.56z"/><path d="m58.293 47.455a5.56 5.56 0 1 1 5.561-5.56 5.567 5.567 0 0 1 -5.561 5.56zm0-9.12a3.56 3.56 0 1 0 3.561 3.56 3.565 3.565 0 0 0 -3.561-3.56z"/><path d="m44.937 40h-12.047a1 1 0 0 1 0-2h12.047a1 1 0 0 1 0 2z"/><path d="m42.967 45.793h-8.107a1 1 0 0 1 0-2h8.107a1 1 0 0 1 0 2z"/></svg>